{
  "accessors": [
    {
      "bufferView": 2,
      "componentType": 5126,
      "count": 3161,
      "max": [
        1.9526338577270508,
        2.123255491256714,
        2.9487192630767822
      ],
      "min": [
        -2.1650474071502686,
        -2.123255968093872,
        -0.3433034420013428
      ],
      "type": "VEC3"
    },
    {
      "bufferView": 2,
      "byteOffset": 37932,
      "componentType": 5126,
      "count": 3161,
      "max": [
        0.9999241828918457,
        1.0,
        0.9971370697021484
      ],
      "min": [
        -0.9996621012687683,
        -1.0,
        -0.9977666139602661
      ],
      "type": "VEC3"
    },
    {
      "bufferView": 3,
      "componentType": 5126,
      "count": 3161,
      "max": [
        0.9971607327461243,
        1.0,
        0.999919593334198,
        1.0
      ],
      "min": [
        -0.9646084308624268,
        -1.0,
        -0.9991317391395569,
        -1.0
      ],
      "type": "VEC4"
    },
    {
      "bufferView": 1,
      "componentType": 5126,
      "count": 3161,
      "max": [
        0.9824222922325134,
        0.9875484704971313
      ],
      "min": [
        0.012451568618416786,
        0.012451568618416786
      ],
      "type": "VEC2"
    },
    {
      "bufferView": 1,
      "byteOffset": 25288,
      "componentType": 5126,
      "count": 3161,
      "max": [
        0.9824222922325134,
        0.9875484704971313
      ],
      "min": [
        0.012451568618416786,
        0.012451568618416786
      ],
      "type": "VEC2"
    },
    {
      "bufferView": 1,
      "byteOffset": 50576,
      "componentType": 5126,
      "count": 3161,
      "max": [
        0.9824222922325134,
        0.9875484704971313
      ],
      "min": [
        0.012451568618416786,
        0.012451568618416786
      ],
      "type": "VEC2"
    },
    {
      "bufferView": 0,
      "componentType": 5125,
      "count": 9840,
      "type": "SCALAR"
    },
    {
      "bufferView": 2,
      "byteOffset": 75864,
      "componentType": 5126,
      "count": 2928,
      "max": [
        3.846583127975464,
        3.7192752361297607,
        -1.189671516418457
      ],
      "min": [
        -3.846583127975464,
        -3.7192752361297607,
        -2.9487192630767822
      ],
      "type": "VEC3"
    },
    {
      "bufferView": 2,
      "byteOffset": 111000,
      "componentType": 5126,
      "count": 2928,
      "max": [
        1.0,
        1.0,
        1.0
      ],
      "min": [
        -1.0,
        -1.0,
        -1.0
      ],
      "type": "VEC3"
    },
    {
      "bufferView": 3,
      "byteOffset": 50576,
      "componentType": 5126,
      "count": 2928,
      "max": [
        1.0,
        1.0,
        1.0,
        1.0
      ],
      "min": [
        -1.0,
        -1.0,
        -1.0,
        1.0
      ],
      "type": "VEC4"
    },
    {
      "bufferView": 1,
      "byteOffset": 75864,
      "componentType": 5126,
      "count": 2928,
      "max": [
        0.972960352897644,
        0.9929348230361938
      ],
      "min": [
        0.01738245040178299,
        0.007175392471253872
      ],
      "type": "VEC2"
    },
    {
      "bufferView": 1,
      "byteOffset": 99288,
      "componentType": 5126,
      "count": 2928,
      "max": [
        0.972960352897644,
        0.9929348230361938
      ],
      "min": [
        0.01738245040178299,
        0.007175392471253872
      ],
      "type": "VEC2"
    },
    {
      "bufferView": 1,
      "byteOffset": 122712,
      "componentType": 5126,
      "count": 2928,
      "max": [
        0.972960352897644,
        0.9929348230361938
      ],
      "min": [
        0.01738245040178299,
        0.007175392471253872
      ],
      "type": "VEC2"
    },
    {
      "bufferView": 0,
      "byteOffset": 39360,
      "componentType": 5125,
      "count": 7122,
      "type": "SCALAR"
    },
    {
      "bufferView": 2,
      "byteOffset": 146136,
      "componentType": 5126,
      "count": 1349,
      "max": [
        0.7675184011459351,
        0.8948256373405457,
        0.02406764030456543
      ],
      "min": [
        -0.978337824344635,
        -0.8948264122009277,
        -1.645876169204712
      ],
      "type": "VEC3"
    },
    {
      "bufferView": 2,
      "byteOffset": 162324,
      "componentType": 5126,
      "count": 1349,
      "max": [
        1.0,
        1.0,
        1.0
      ],
      "min": [
        -1.0,
        -1.0,
        -1.0
      ],
      "type": "VEC3"
    },
    {
      "bufferView": 3,
      "byteOffset": 97424,
      "componentType": 5126,
      "count": 1349,
      "max": [
        0.9876887798309326,
        1.0,
        1.0,
        1.0
      ],
      "min": [
        -1.0,
        -1.0,
        -1.0,
        -1.0
      ],
      "type": "VEC4"
    },
    {
      "bufferView": 1,
      "byteOffset": 146136,
      "componentType": 5126,
      "count": 1349,
      "max": [
        0.9901867508888245,
        0.958965003490448
      ],
      "min": [
        0.009813225828111172,
        0.009813225828111172
      ],
      "type": "VEC2"
    },
    {
      "bufferView": 1,
      "byteOffset": 156928,
      "componentType": 5126,
      "count": 1349,
      "max": [
        0.9901867508888245,
        0.958965003490448
      ],
      "min": [
        0.009813225828111172,
        0.009813225828111172
      ],
      "type": "VEC2"
    },
    {
      "bufferView": 0,
      "byteOffset": 67848,
      "componentType": 5125,
      "count": 3990,
      "type": "SCALAR"
    }
  ],
  "asset": {
    "extras": {
      "author": "Zambur (https://sketchfab.com/Zambur)",
      "license": "CC-BY-4.0 (http://creativecommons.org/licenses/by/4.0/)",
      "source": "https://sketchfab.com/3d-models/sci-fi-antenna-dcfd54e46fcd4cf48ec331bb79b209de",
      "title": "Sci_Fi Antenna"
    },
    "generator": "Sketchfab-13.84.0",
    "version": "2.0"
  },
  "bufferViews": [
    {
      "buffer": 0,
      "byteLength": 83808,
      "name": "floatBufferViews",
      "target": 34963
    },
    {
      "buffer": 0,
      "byteLength": 167720,
      "byteOffset": 83808,
      "byteStride": 8,
      "name": "floatBufferViews",
      "target": 34962
    },
    {
      "buffer": 0,
      "byteLength": 178512,
      "byteOffset": 251528,
      "byteStride": 12,
      "name": "floatBufferViews",
      "target": 34962
    },
    {
      "buffer": 0,
      "byteLength": 119008,
      "byteOffset": 430040,
      "byteStride": 16,
      "name": "floatBufferViews",
      "target": 34962
    }
  ],
  "buffers": [
    {
      "byteLength": 549048,
      "uri": "gltf.bin"
    }
  ],
  "images": [
    {
      "uri": "textures/material_baseColor.jpeg"
    },
    {
      "uri": "textures/material_metallicRoughness.png"
    },
    {
      "uri": "textures/material_emissive.jpeg"
    },
    {
      "uri": "textures/material_normal.png"
    },
    {
      "uri": "textures/material_1_baseColor.jpeg"
    },
    {
      "uri": "textures/material_1_metallicRoughness.png"
    },
    {
      "uri": "textures/material_1_emissive.jpeg"
    },
    {
      "uri": "textures/material_1_normal.png"
    },
    {
      "uri": "textures/material_2_baseColor.jpeg"
    },
    {
      "uri": "textures/material_2_metallicRoughness.png"
    },
    {
      "uri": "textures/material_2_normal.png"
    }
  ],
  "materials": [
    {
      "doubleSided": true,
      "emissiveFactor": [
        1.0,
        1.0,
        1.0
      ],
      "emissiveTexture": {
        "index": 2
      },
      "name": "material",
      "normalTexture": {
        "index": 3
      },
      "pbrMetallicRoughness": {
        "baseColorTexture": {
          "index": 0
        },
        "metallicRoughnessTexture": {
          "index": 1
        }
      }
    },
    {
      "doubleSided": true,
      "emissiveFactor": [
        1.0,
        1.0,
        1.0
      ],
      "emissiveTexture": {
        "index": 6
      },
      "name": "material_1",
      "normalTexture": {
        "index": 7
      },
      "pbrMetallicRoughness": {
        "baseColorTexture": {
          "index": 4
        },
        "metallicRoughnessTexture": {
          "index": 5
        }
      }
    },
    {
      "doubleSided": true,
      "name": "material_2",
      "normalTexture": {
        "index": 10
      },
      "pbrMetallicRoughness": {
        "baseColorTexture": {
          "index": 8
        },
        "metallicRoughnessTexture": {
          "index": 9
        }
      }
    }
  ],
  "meshes": [
    {
      "name": "ST_Triangle_S_3_0",
      "primitives": [
        {
          "attributes": {
            "NORMAL": 1,
            "POSITION": 0,
            "TANGENT": 2,
            "TEXCOORD_0": 3,
            "TEXCOORD_1": 4,
            "TEXCOORD_2": 5
          },
          "indices": 6,
          "material": 0,
          "mode": 4
        }
      ]
    },
    {
      "name": "ST_Triangle_S_1_0",
      "primitives": [
        {
          "attributes": {
            "NORMAL": 8,
            "POSITION": 7,
            "TANGENT": 9,
            "TEXCOORD_0": 10,
            "TEXCOORD_1": 11,
            "TEXCOORD_2": 12
          },
          "indices": 13,
          "material": 1,
          "mode": 4
        }
      ]
    },
    {
      "name": "ST_Triangle_S_2_0",
      "primitives": [
        {
          "attributes": {
            "NORMAL": 15,
            "POSITION": 14,
            "TANGENT": 16,
            "TEXCOORD_0": 17,
            "TEXCOORD_1": 18
          },
          "indices": 19,
          "material": 2,
          "mode": 4
        }
      ]
    }
  ],
  "nodes": [
    {
      "children": [
        1
      ],
      "matrix": [
        0.4422941207885742,
        0.0,
        0.0,
        0.0,
        0.0,
        9.820902331116304e-17,
        -0.4422941207885742,
        0.0,
        0.0,
        0.4422941207885742,
        9.820902331116304e-17,
        0.0,
        0.0,
        0.0,
        0.0,
        1.0
      ],
      "name": "Sketchfab_model"
    },
    {
      "children": [
        2
      ],
      "matrix": [
        0.009999999776482582,
        0.0,
        0.0,
        0.0,
        0.0,
        0.0,
        0.009999999776482582,
        0.0,
        0.0,
        -0.009999999776482582,
        0.0,
        0.0,
        0.0,
        0.0,
        0.0,
        1.0
      ],
      "name": "8aa4fe10c16e4f7896c6207c556155f9.fbx"
    },
    {
      "children": [
        3
      ],
      "name": "RootNode"
    },
    {
      "children": [
        4,
        5,
        6
      ],
      "matrix": [
        100.0,
        0.0,
        0.0,
        0.0,
        0.0,
        -1.629206793918314e-05,
        -99.99999999999868,
        0.0,
        0.0,
        99.99999999999868,
        -1.629206793918314e-05,
        0.0,
        12.730765342712402,
        294.2724914550781,
        -2.384185791015625e-05,
        1.0
      ],
      "name": "ST_Triangle"
    },
    {
      "mesh": 0,
      "name": "ST_Triangle_S_3_0"
    },
    {
      "mesh": 1,
      "name": "ST_Triangle_S_1_0"
    },
    {
      "mesh": 2,
      "name": "ST_Triangle_S_2_0"
    }
  ],
  "samplers": [
    {
      "magFilter": 9729,
      "minFilter": 9987,
      "wrapS": 10497,
      "wrapT": 10497
    }
  ],
  "scene": 0,
  "scenes": [
    {
      "name": "Sketchfab_Scene",
      "nodes": [
        0
      ]
    }
  ],
  "textures": [
    {
      "sampler": 0,
      "source": 0
    },
    {
      "sampler": 0,
      "source": 1
    },
    {
      "sampler": 0,
      "source": 2
    },
    {
      "sampler": 0,
      "source": 3
    },
    {
      "sampler": 0,
      "source": 4
    },
    {
      "sampler": 0,
      "source": 5
    },
    {
      "sampler": 0,
      "source": 6
    },
    {
      "sampler": 0,
      "source": 7
    },
    {
      "sampler": 0,
      "source": 8
    },
    {
      "sampler": 0,
      "source": 9
    },
    {
      "sampler": 0,
      "source": 10
    }
  ]
}
