{
  "accessors": [
    {
      "bufferView": 2,
      "componentType": 5126,
      "count": 36075,
      "max": [
        9.932198524475098,
        12.641931533813477,
        9.932198524475098
      ],
      "min": [
        -9.932198524475098,
        -0.0013530254364013672,
        -9.932198524475098
      ],
      "type": "VEC3"
    },
    {
      "bufferView": 2,
      "byteOffset": 432900,
      "componentType": 5126,
      "count": 36075,
      "max": [
        1.0,
        1.0,
        1.0
      ],
      "min": [
        -1.0,
        -1.0,
        -1.0
      ],
      "type": "VEC3"
    },
    {
      "bufferView": 3,
      "componentType": 5126,
      "count": 36075,
      "max": [
        1.0,
        1.0,
        1.0,
        1.0
      ],
      "min": [
        -1.0,
        -1.0,
        -1.0,
        -1.0
      ],
      "type": "VEC4"
    },
    {
      "bufferView": 1,
      "componentType": 5126,
      "count": 36075,
      "max": [
        1.000128149986267,
        0.9960777163505554
      ],
      "min": [
        0.0019856318831443787,
        0.001418277621269226
      ],
      "type": "VEC2"
    },
    {
      "bufferView": 0,
      "componentType": 5125,
      "count": 82368,
      "type": "SCALAR"
    },
    {
      "bufferView": 2,
      "byteOffset": 865800,
      "componentType": 5126,
      "count": 923,
      "max": [
        10.119415283203125,
        14.910333633422852,
        10.119414329528809
      ],
      "min": [
        -10.119413375854492,
        1.1920928955078125e-07,
        -10.119416236877441
      ],
      "type": "VEC3"
    },
    {
      "bufferView": 2,
      "byteOffset": 876876,
      "componentType": 5126,
      "count": 923,
      "max": [
        1.0,
        1.0,
        1.0
      ],
      "min": [
        -1.0,
        -1.0,
        -1.0
      ],
      "type": "VEC3"
    },
    {
      "bufferView": 3,
      "byteOffset": 577200,
      "componentType": 5126,
      "count": 923,
      "max": [
        1.0,
        1.0,
        1.0,
        1.0
      ],
      "min": [
        -1.0,
        -0.9999852180480957,
        -1.0,
        1.0
      ],
      "type": "VEC4"
    },
    {
      "bufferView": 1,
      "byteOffset": 288600,
      "componentType": 5126,
      "count": 923,
      "max": [
        0.9790533185005188,
        0.9831183552742004
      ],
      "min": [
        0.019767284393310547,
        0.0064972639083862305
      ],
      "type": "VEC2"
    },
    {
      "bufferView": 0,
      "byteOffset": 329472,
      "componentType": 5125,
      "count": 1872,
      "type": "SCALAR"
    }
  ],
  "asset": {
    "extras": {
      "author": "Aurantiko (https://sketchfab.com/Aurantico)",
      "license": "CC-BY-4.0 (http://creativecommons.org/licenses/by/4.0/)",
      "source": "https://sketchfab.com/3d-models/gd55-mod1-a2-aldovazquez-d2189823a9de4e1f856988faa37f5723",
      "title": "GD55_MOD1_A2_AldoVazquez"
    },
    "generator": "Sketchfab-12.68.0",
    "version": "2.0"
  },
  "bufferViews": [
    {
      "buffer": 0,
      "byteLength": 336960,
      "name": "floatBufferViews",
      "target": 34963
    },
    {
      "buffer": 0,
      "byteLength": 295984,
      "byteOffset": 336960,
      "byteStride": 8,
      "name": "floatBufferViews",
      "target": 34962
    },
    {
      "buffer": 0,
      "byteLength": 887952,
      "byteOffset": 632944,
      "byteStride": 12,
      "name": "floatBufferViews",
      "target": 34962
    },
    {
      "buffer": 0,
      "byteLength": 591968,
      "byteOffset": 1520896,
      "byteStride": 16,
      "name": "floatBufferViews",
      "target": 34962
    }
  ],
  "buffers": [
    {
      "byteLength": 2112864,
      "uri": "scene.bin"
    }
  ],
  "images": [
    {
      "uri": "textures/ReactorMat1_baseColor.jpeg"
    },
    {
      "uri": "textures/ReactorMat1_metallicRoughness.png"
    },
    {
      "uri": "textures/ReactorMat1_normal.png"
    },
    {
      "uri": "textures/ReactorMat2_baseColor.png"
    },
    {
      "uri": "textures/ReactorMat2_metallicRoughness.png"
    },
    {
      "uri": "textures/ReactorMat2_emissive.jpeg"
    },
    {
      "uri": "textures/ReactorMat2_normal.png"
    }
  ],
  "materials": [
    {
      "doubleSided": true,
      "name": "ReactorMat1",
      "normalTexture": {
        "index": 2
      },
      "occlusionTexture": {
        "index": 1
      },
      "pbrMetallicRoughness": {
        "baseColorTexture": {
          "index": 0
        },
        "metallicRoughnessTexture": {
          "index": 1
        }
      }
    },
    {
      "alphaMode": "BLEND",
      "doubleSided": true,
      "emissiveFactor": [
        1.0,
        1.0,
        1.0
      ],
      "emissiveTexture": {
        "index": 5
      },
      "name": "ReactorMat2",
      "normalTexture": {
        "index": 6
      },
      "occlusionTexture": {
        "index": 4
      },
      "pbrMetallicRoughness": {
        "baseColorTexture": {
          "index": 3
        },
        "metallicRoughnessTexture": {
          "index": 4
        }
      }
    }
  ],
  "meshes": [
    {
      "name": "HeroModel_ReactorMat1_0",
      "primitives": [
        {
          "attributes": {
            "NORMAL": 1,
            "POSITION": 0,
            "TANGENT": 2,
            "TEXCOORD_0": 3
          },
          "indices": 4,
          "material": 0,
          "mode": 4
        }
      ]
    },
    {
      "name": "HeroModel_ReactorMat2_0",
      "primitives": [
        {
          "attributes": {
            "NORMAL": 6,
            "POSITION": 5,
            "TANGENT": 7,
            "TEXCOORD_0": 8
          },
          "indices": 9,
          "material": 1,
          "mode": 4
        }
      ]
    }
  ],
  "nodes": [
    {
      "children": [
        1
      ],
      "matrix": [
        0.20000000298023224,
        0.0,
        0.0,
        0.0,
        0.0,
        4.440892164675075e-17,
        -0.20000000298023224,
        0.0,
        0.0,
        0.20000000298023224,
        4.440892164675075e-17,
        0.0,
        0.0,
        0.0,
        0.0,
        1.0
      ],
      "name": "Sketchfab_model"
    },
    {
      "children": [
        2
      ],
      "matrix": [
        1.0,
        0.0,
        0.0,
        0.0,
        0.0,
        0.0,
        1.0,
        0.0,
        0.0,
        -1.0,
        0.0,
        0.0,
        0.0,
        0.0,
        0.0,
        1.0
      ],
      "name": "62c43613321d49feaebb90e5d032c75b.fbx"
    },
    {
      "children": [
        3
      ],
      "name": "RootNode"
    },
    {
      "children": [
        4,
        5
      ],
      "name": "HeroModel"
    },
    {
      "mesh": 0,
      "name": "HeroModel_ReactorMat1_0"
    },
    {
      "mesh": 1,
      "name": "HeroModel_ReactorMat2_0"
    }
  ],
  "samplers": [
    {
      "magFilter": 9729,
      "minFilter": 9987,
      "wrapS": 10497,
      "wrapT": 10497
    }
  ],
  "scene": 0,
  "scenes": [
    {
      "name": "Sketchfab_Scene",
      "nodes": [
        0
      ]
    }
  ],
  "textures": [
    {
      "sampler": 0,
      "source": 0
    },
    {
      "sampler": 0,
      "source": 1
    },
    {
      "sampler": 0,
      "source": 2
    },
    {
      "sampler": 0,
      "source": 3
    },
    {
      "sampler": 0,
      "source": 4
    },
    {
      "sampler": 0,
      "source": 5
    },
    {
      "sampler": 0,
      "source": 6
    }
  ]
}
